<svg id="finish" xmlns="http://www.w3.org/2000/svg" xmlns:xlink="http://www.w3.org/1999/xlink" viewBox="0 0 192 192"><defs><style>.cls-1{fill:url(#radial-gradient);}.cls-2{fill:#fff;}.cls-3{fill:#212121;}.cls-3,.cls-7{opacity:0.2;}.cls-4{fill:url(#New_Gradient_Swatch);}.cls-5{opacity:0.1;}.cls-6{fill:url(#linear-gradient);}</style><radialGradient id="radial-gradient" cx="23.77" cy="23.93" r="204.62" gradientUnits="userSpaceOnUse"><stop offset="0" stop-color="#fff" stop-opacity="0.1"/><stop offset="1" stop-color="#fff" stop-opacity="0"/></radialGradient><linearGradient id="New_Gradient_Swatch" x1="96.02" y1="146.06" x2="96.02" y2="41.05" gradientUnits="userSpaceOnUse"><stop offset="0" stop-color="#15b49b"/><stop offset="1" stop-color="#38ef7d"/></linearGradient><linearGradient id="linear-gradient" x1="20" y1="96" x2="172" y2="96" gradientUnits="userSpaceOnUse"><stop offset="0" stop-opacity="0.1"/><stop offset="1" stop-opacity="0"/></linearGradient></defs><rect class="cls-1" x="20" y="20" width="152" height="152" rx="12"/><rect id="Background" class="cls-2" x="20" y="20" width="152" height="152" rx="12"/><path class="cls-3" d="M160,171H32a12,12,0,0,1-12-12v1a12,12,0,0,0,12,12H160a12,12,0,0,0,12-12v-1A12,12,0,0,1,160,171Z"/><g id="Foreground"><path class="cls-4" d="M53,118.74h0Zm85.92,0h0Zm8.57,0a17.16,17.16,0,0,0-.95-2l-2.93-5.15L137,100,124.26,78l-2.4-4.15h0L110,53.28h0l-1.36-2.36h0a15.4,15.4,0,0,0-25.25,0h0L82,53.27h0L70.18,73.8,67.77,78h0L55.05,100l-6.67,11.54-3,5.14h0l-.92,2a15.72,15.72,0,0,0-.73,2.65,15.3,15.3,0,0,0-.26,2.81h0q0,.43,0,.84a15.42,15.42,0,0,0,15.39,14.6h.64a10.72,10.72,0,0,0,2.76-.36l7.85-2.11,17.08-4.57h0l.42-.11a3.61,3.61,0,0,0,2.47-3.41,2.83,2.83,0,0,0,0-.41h0V115.43a2.21,2.21,0,0,0-2.23-2.2,2.63,2.63,0,0,0-.49,0h0l-.16,0h0l-14.57,3.9-2.51.67-2.62.71-.09,0-.1,0a2.39,2.39,0,0,1-.66.08h-.14a3.59,3.59,0,0,1-1.8-6.71l.83-.48,1.15-.65,3.43-2L76,105.61,90.15,97.5,92.85,96h0a4,4,0,0,1,.48-.28h0a6,6,0,0,1,5.33,0h0a4.76,4.76,0,0,1,.49.28h0l2.71,1.55,14.17,8.11,5.8,3.33,3.43,2,1.15.65.67.39h0l.32.19h0a3.59,3.59,0,0,1-2,6.61h-.16a2.48,2.48,0,0,1-.66-.08l-2.8-.75-2.52-.68-14.57-3.9h0l-.16,0h0a2.73,2.73,0,0,0-.5,0,2.2,2.2,0,0,0-2.22,2.2v13.25h0a2.82,2.82,0,0,0,0,.41,3.58,3.58,0,0,0,2.45,3.4h0l.41.11h0l17.08,4.58,7.84,2.1a10.72,10.72,0,0,0,2.76.36h.64A15.43,15.43,0,0,0,148.5,125c0-.27,0-.55,0-.84h0A15.47,15.47,0,0,0,147.53,118.74Z"/></g><g class="cls-5"><path d="M87.67,131.49l-.42.11h0l-17.07,4.57-7.85,2.11a10.74,10.74,0,0,1-2.77.36h-.64A15.42,15.42,0,0,1,43.52,124a1.48,1.48,0,0,0,0-.21c0,.12,0,.24,0,.37h0c0,.29,0,.57,0,.84a15.42,15.42,0,0,0,15.39,14.6h.64a10.74,10.74,0,0,0,2.77-.36l7.85-2.11,17.07-4.57h0l.42-.11a3.61,3.61,0,0,0,2.46-3.41c0-.14,0-.27,0-.41h0v-.6A3.61,3.61,0,0,1,87.67,131.49Z"/><polygon points="53.03 117.74 53.02 117.74 53.05 117.74 53.03 117.74"/><polygon points="138.97 117.74 138.97 117.74 138.95 117.74 138.98 117.74 138.97 117.74"/><path d="M148.48,124a15.42,15.42,0,0,1-15.39,14.6h-.64a10.74,10.74,0,0,1-2.77-.36l-7.83-2.1-17.08-4.58h0l-.42-.11h0a3.59,3.59,0,0,1-2.46-3.4v.6h0c0,.14,0,.27,0,.41a3.59,3.59,0,0,0,2.46,3.4h0l.42.11h0l17.08,4.58,7.83,2.1a10.74,10.74,0,0,0,2.77.36h.64A15.42,15.42,0,0,0,148.48,125c0-.27,0-.55,0-.84h0c0-.13,0-.25,0-.37A1.48,1.48,0,0,0,148.48,124Z"/><path d="M101.87,127.68v.4c0-.14,0-.27,0-.41Z"/><path d="M116,105.61l5.81,3.33,3.42,2,1.15.65.67.39h0a3.37,3.37,0,0,1,.32.19h0A3.61,3.61,0,0,1,129,114.6a3.44,3.44,0,0,0,.05-.45,3.58,3.58,0,0,0-1.66-3h0a3.37,3.37,0,0,0-.32-.19h0l-.67-.39-1.15-.65-3.42-2L116,104.61,101.87,96.5,99.16,95h0a4.76,4.76,0,0,0-.49-.28h0a6,6,0,0,0-5.33,0h0a3.43,3.43,0,0,0-.49.28h0L90.13,96.5,76,104.61l-5.79,3.32-3.44,2-1.15.65-.83.48a3.58,3.58,0,0,0-1.82,3.12,3.44,3.44,0,0,0,0,.45A3.6,3.6,0,0,1,64.75,112l.83-.48,1.15-.65,3.44-2L76,105.61,90.13,97.5,92.84,96h0a3.43,3.43,0,0,1,.49-.28h0a6,6,0,0,1,5.33,0h0a4.76,4.76,0,0,1,.49.28h0l2.71,1.55Z"/><path d="M90.13,128.08v-.4h0C90.12,127.81,90.13,127.94,90.13,128.08Z"/></g><rect id="Background-2" data-name="Background" class="cls-6" x="20" y="20" width="152" height="152" rx="12"/><g id="Tinted_Accents" data-name="Tinted Accents" class="cls-7"><path class="cls-2" d="M87.91,113.23a2.73,2.73,0,0,0-.5,0h0l-.16,0h0l-14.57,3.9-2.5.67-2.63.71-.09,0-.09,0a2.48,2.48,0,0,1-.66.08h-.15A3.6,3.6,0,0,1,63,115.6a3.31,3.31,0,0,0,0,.55,3.6,3.6,0,0,0,3.62,3.59h.15a2.48,2.48,0,0,0,.66-.08l.09,0,.09,0,2.63-.71,2.5-.67,14.57-3.9h0l.16,0h0a2.73,2.73,0,0,1,.5,0,2.21,2.21,0,0,1,2.22,2.2v-1A2.21,2.21,0,0,0,87.91,113.23Z"/><polygon class="cls-2" points="53.05 119.74 53.03 119.74 53.02 119.74 53.05 119.74"/><polygon class="cls-2" points="138.98 119.74 138.97 119.74 138.97 119.74 138.95 119.74 138.98 119.74"/><path class="cls-2" d="M125.46,118.74h-.16a2.48,2.48,0,0,1-.66-.08l-2.79-.75-2.52-.68-14.57-3.9h0l-.16,0h0a2.73,2.73,0,0,0-.5,0,2.21,2.21,0,0,0-2.22,2.2v1a2.21,2.21,0,0,1,2.22-2.2,2.73,2.73,0,0,1,.5,0h0l.16,0h0l14.57,3.9,2.52.68,2.79.75a2.48,2.48,0,0,0,.66.08h.16a3.6,3.6,0,0,0,3.62-3.59,3.31,3.31,0,0,0-.05-.55A3.6,3.6,0,0,1,125.46,118.74Z"/><path class="cls-2" d="M147.51,118.74a14.5,14.5,0,0,0-.95-2l-2.93-5.15L137,100,124.24,78l-2.39-4.15h0L110,53.28h0l-1.36-2.36h0a15.39,15.39,0,0,0-25.25,0h0L82,53.27h0L70.17,73.8,67.76,78h0L55,100l-6.66,11.54-3,5.14h0l-.91,2a15.74,15.74,0,0,0-.74,2.65,15.3,15.3,0,0,0-.25,2.81h0c0,.21,0,.42,0,.63a16.27,16.27,0,0,1,.24-2.44,15.74,15.74,0,0,1,.74-2.65l.91-2h0l3-5.14L55,101,67.76,79h0l2.41-4.17L82,54.28h0l1.36-2.35h0a15.4,15.4,0,0,1,25.25,0h0L110,54.28h0l11.86,20.54h0L124.24,79,137,101l6.66,11.54,2.93,5.15a14.5,14.5,0,0,1,.95,2,15.6,15.6,0,0,1,1,5.09c0-.21,0-.42,0-.63h0A15.47,15.47,0,0,0,147.51,118.74Z"/></g></svg>